**ABCDEFGHIJKLMNOPQRSTUVWXYZabcdefghijklmnopqrstuvwxyz**************************
**PARASOLID !"#$%&'()*+,-./:;<=>?@[\]^_`{|}~0123456789**************************
**PART1;
MC=unknown;
MC_MODEL=unknown;
MC_ID=unknown;
OS=unknown;
OS_RELEASE=unknown;
FRU=sdl_parasolid_customer_support;
APPL=parasolid_acceptance_tests;
SITE=unknown;
USER=unknown;
FORMAT=text;
GUISE=transmit;
KEY=/fasttmp/wtobin/develop/amsi_sim/test/test_interface/models/cube_uniaxial_0.5_nat.x_t;
FILE=/fasttmp/wtobin/develop/amsi_sim/test/test_interface/models/cube_uniaxial_0.5_nat.x_t;
DATE=unknown;
**PART2;
SCH=SCH_2700142_26105;
USFLD_SIZE=1;
**PART3;
**END_OF_HEADER*****************************************************************
T51 : TRANSMIT FILE created by modeller version 270014223 SCH_2700142_26105_1300
6196 1 12 30 CCCCCCCCCCCCCDI5 owner1040 0 CCCCCCCCCA13 boundary_mesh1006 0 A16 i
ndex_map_offset0 0 1 dA9 index_map82 0 A17 node_id_index_map82 0 A20 schema_embe
dding_map82 0 A5 child12 0 A14 lowest_node_id0 0 1 dZ1 116 0 0 0 0 0 0 1e3 1e-8
 0 2 0 1 0 1 1 3 4 5 6 7 8 9 0 0 0 0 0 0 0 0 13 255 3 3 0 1 0 10 0 0 11 0 0 50 2
55 4 54 0 10 12 0 0 +0 0 2 0 0 1 1 0 0 0 30 255 5 62 0 8 13 0 0 +0 -1 2 -1 0 0 0
 29 255 6 58 0 9 14 0 -1 -1 2 0 19 8 CCCCCCCA5 owner12 0 Z7 1 0 1 11 0 15 V0 0 1
6 255 8 34 0 ?16 0 17 5 0 0 1 0 18 255 9 23 0 16 0 18 6 ?1 0 17 255 16 0 19 20 2
1 9 22 8 0 23 +0 18 18 21 0 24 9 25 14 ?1 0 17 24 0 26 27 28 18 23 17 0 29 +0 18
 25 19 0 30 18 31 32 ?1 0 29 14 57 0 18 32 6 -1 1 2 0 29 32 56 0 25 33 14 1 1 2
 0 29 33 55 0 31 34 32 1 -1 2 0 18 31 17 0 22 25 35 33 ?1 0 29 34 41 0 36 37 33
 -1 -1 0 0 18 36 11 0 20 38 39 34 ?1 0 29 37 40 0 38 40 34 -1 1 0 0 18 38 13 0 2
7 35 36 37 ?1 0 29 40 39 0 35 41 37 1 1 0 0 18 35 15 0 42 31 38 40 ?1 0 29 41 38
 0 39 0 40 1 -1 0 0 18 39 10 0 43 36 0 41 ?1 0 17 43 0 44 45 46 39 21 47 0 48 -0
 15 255 44 7 0 45 49 0 0 17 45 0 44 50 43 35 51 52 0 0 +0 17 46 0 44 43 50 31 53
 54 0 21 +0 17 21 0 19 16 48 31 43 47 0 0 +0 16 47 18 0 ?21 55 52 56 0 0 1 0 17
 48 0 19 21 20 39 57 58 0 51 +0 15 19 32 0 21 59 0 0 17 20 0 19 48 16 36 28 60 0
 61 -0 17 57 0 62 63 51 36 48 58 0 0 -0 16 58 12 0 ?48 64 0 65 0 0 1 0 17 51 0 6
2 57 66 39 45 52 0 0 -0 15 62 8 0 51 67 0 0 17 66 0 62 51 63 35 68 69 0 45 -0 16
 52 6 0 ?45 47 69 70 0 0 1 0 16 69 16 0 ?68 52 64 71 0 0 1 0 30 70 43 0 52 65 71
 0 +1 0 0 0 1 0 0 30 65 42 0 58 0 70 0 +0 -1 0 1 0 0 0 30 71 44 0 69 70 72 0 +0
 1 0 -1 0 0 0 30 72 45 0 64 71 56 0 +-1 0 0 0 -1 0 0 16 64 14 0 ?61 69 58 72 0 0
 1 0 30 56 50 0 47 72 73 0 +1 -1 0 0 0 1 0 30 73 51 0 55 56 74 0 +1 1 0 0 0 1 0
 16 55 20 0 ?50 75 47 73 0 0 1 0 30 74 52 0 75 73 76 0 +-1 1 0 0 0 1 0 16 75 22
 0 ?77 60 55 74 0 0 1 0 30 76 53 0 60 74 78 0 +-1 -1 0 0 0 1 0 16 60 24 0 ?28 54
 75 76 0 0 1 0 30 78 59 0 54 76 79 0 +1 0 2 0 -1 0 0 16 54 25 0 ?46 80 60 78 0 0
 1 0 30 79 60 0 80 78 13 0 +0 1 2 1 0 0 0 16 80 28 0 ?30 17 54 79 0 0 1 0 30 13
 61 0 17 79 5 0 +-1 0 2 0 1 0 0 16 17 31 0 ?24 8 80 13 0 0 1 0 17 30 0 81 42 77
 25 29 80 0 53 +0 15 81 26 0 77 82 0 0 17 42 0 81 68 30 35 50 55 0 66 -0 17 77 0
 81 30 68 18 27 75 0 0 +0 17 29 0 83 23 53 18 30 80 0 77 -0 17 53 0 83 29 22 25
 46 54 0 50 -0 15 83 35 0 22 10 0 0 17 22 0 83 53 23 31 16 8 0 46 -0 17 50 0 44
 46 45 25 42 55 0 0 +0 17 23 0 83 22 29 9 24 17 0 28 -0 17 28 0 26 24 61 9 20 60
 0 0 +0 15 26 29 0 28 84 0 0 17 61 0 26 28 27 36 63 64 0 57 +0 17 27 0 26 61 24
 38 77 75 0 68 -0 17 63 0 62 66 57 38 61 64 0 0 -0 17 68 0 81 77 42 38 66 69 0 6
3 +0 14 255 84 30 0 ?82 59 26 3 85 +0 0 82 59 15 0 14 82 27 0 ?67 84 81 3 86 +0
 0 67 84 15 0 14 59 33 0 ?84 10 19 3 12 +0 0 84 10 15 0 50 85 48 0 84 86 12 0 +-
1 0 0 -1 0 0 0 0 1 0 13 15 4 0 0 0 0 0 0 7 10 0 14 10 36 0 ?59 0 83 3 4 +0 0 59
 0 15 0 50 86 47 0 82 87 85 0 +0 1 0 0 1 0 0 0 1 0 50 12 49 0 59 85 4 0 +0 -1 0
 0 -1 0 0 0 -1 0 50 87 46 0 49 88 86 0 +1 0 0 1 0 0 0 0 -1 0 14 49 2 0 ?0 67 44
 3 87 +0 0 0 67 15 0 50 88 37 0 67 0 87 0 +0 0 0 0 0 -1 -1 0 0 0 14 67 9 0 ?49 8
2 62 3 88 +0 0 49 82 15 0 19 11 5 0 1 0 7 3 S0 0 1 0 
