**ABCDEFGHIJKLMNOPQRSTUVWXYZabcdefghijklmnopqrstuvwxyz**************************
**PARASOLID !"#$%&'()*+,-./:;<=>?@[\]^_`{|}~0123456789**************************
**PART1;
MC=unknown;
MC_MODEL=unknown;
MC_ID=unknown;
OS=unknown;
OS_RELEASE=unknown;
FRU=sdl_parasolid_customer_support;
APPL=parasolid_acceptance_tests;
SITE=unknown;
USER=unknown;
FORMAT=text;
GUISE=transmit;
KEY=/fasttmp/wtobin/develop/amsi/test/interface/models/cube_uniaxial_10kPa_nat.x_t;
FILE=/fasttmp/wtobin/develop/amsi/test/interface/models/cube_uniaxial_10kPa_nat.x_t;
DATE=unknown;
**PART2;
SCH=SCH_2700142_26105;
USFLD_SIZE=1;
**PART3;
**END_OF_HEADER*****************************************************************
T51 : TRANSMIT FILE created by modeller version 270014223 SCH_2700142_26105_1300
6196 1 12 30 CCCCCCCCCCCCCDI5 owner1040 0 CCCCCCCCCA13 boundary_mesh1006 0 A16 i
ndex_map_offset0 0 1 dA9 index_map82 0 A17 node_id_index_map82 0 A20 schema_embe
dding_map82 0 A5 child12 0 A14 lowest_node_id0 0 1 dZ1 116 0 0 0 0 0 0 1e3 1e-8
 0 2 3 1 0 1 1 4 5 6 7 8 9 10 0 0 0 0 0 0 0 0 13 255 4 3 0 1 0 11 0 0 12 0 0 50
 255 5 54 0 11 13 0 0 +0 0 2 0 0 1 1 0 0 0 30 255 6 62 0 9 14 0 0 +0 -1 2 -1 0 0
 0 29 255 7 58 0 10 15 0 -1 -1 2 0 19 8 CCCCCCCA5 owner12 0 Z8 1 0 1 12 0 16 V0
 0 16 255 9 34 0 ?17 0 18 6 0 0 1 0 18 255 10 23 0 17 0 19 7 ?1 0 17 255 17 0 20
 21 22 10 23 9 0 24 +0 18 19 21 0 25 10 26 15 ?1 0 17 25 0 27 28 29 19 24 18 0 3
0 +0 18 26 19 0 31 19 32 33 ?1 0 29 15 57 0 19 33 7 -1 1 2 0 29 33 56 0 26 34 15
 1 1 2 0 29 34 55 0 32 35 33 1 -1 2 0 18 32 17 0 23 26 36 34 ?1 0 29 35 41 0 37
 38 34 -1 -1 0 0 18 37 11 0 21 39 40 35 ?1 0 29 38 40 0 39 41 35 -1 1 0 0 18 39
 13 0 28 36 37 38 ?1 0 29 41 39 0 36 42 38 1 1 0 0 18 36 15 0 43 32 39 41 ?1 0 2
9 42 38 0 40 0 41 1 -1 0 0 18 40 10 0 44 37 0 42 ?1 0 17 44 0 45 46 47 40 22 48
 0 49 -0 15 255 45 7 0 46 50 0 0 17 46 0 45 51 44 36 52 53 0 0 +0 17 47 0 45 44
 51 32 54 55 0 22 +0 17 22 0 20 17 49 32 44 48 0 0 +0 16 48 18 0 ?22 56 53 57 0
 0 1 0 17 49 0 20 22 21 40 58 59 0 52 +0 15 20 32 0 22 60 0 0 17 21 0 20 49 17 3
7 29 61 0 62 -0 17 58 0 63 64 52 37 49 59 0 0 -0 16 59 12 0 ?49 65 0 66 0 0 1 0
 17 52 0 63 58 67 40 46 53 0 0 -0 15 63 8 0 52 68 0 0 17 67 0 63 52 64 36 69 70
 0 46 -0 16 53 6 0 ?46 48 70 71 0 0 1 0 16 70 16 0 ?69 53 65 72 0 0 1 0 30 71 43
 0 53 66 72 0 +1 0 0 0 1 0 0 30 66 42 0 59 0 71 0 +0 -1 0 1 0 0 0 30 72 44 0 70
 71 73 0 +0 1 0 -1 0 0 0 30 73 45 0 65 72 57 0 +-1 0 0 0 -1 0 0 16 65 14 0 ?62 7
0 59 73 0 0 1 0 30 57 50 0 48 73 74 0 +1 -1 0 0 0 1 0 30 74 51 0 56 57 75 0 +1 1
 0 0 0 1 0 16 56 20 0 ?51 76 48 74 0 0 1 0 30 75 52 0 76 74 77 0 +-1 1 0 0 0 1 0
 16 76 22 0 ?78 61 56 75 0 0 1 0 30 77 53 0 61 75 79 0 +-1 -1 0 0 0 1 0 16 61 24
 0 ?29 55 76 77 0 0 1 0 30 79 59 0 55 77 80 0 +1 0 2 0 -1 0 0 16 55 25 0 ?47 81
 61 79 0 0 1 0 30 80 60 0 81 79 14 0 +0 1 2 1 0 0 0 16 81 28 0 ?31 18 55 80 0 0
 1 0 30 14 61 0 18 80 6 0 +-1 0 2 0 1 0 0 16 18 31 0 ?25 9 81 14 0 0 1 0 17 31 0
 82 43 78 26 30 81 0 54 +0 15 82 26 0 78 83 0 0 17 43 0 82 69 31 36 51 56 0 67 -
0 17 78 0 82 31 69 19 28 76 0 0 +0 17 30 0 84 24 54 19 31 81 0 78 -0 17 54 0 84
 30 23 26 47 55 0 51 -0 15 84 35 0 23 11 0 0 17 23 0 84 54 24 32 17 9 0 47 -0 17
 51 0 45 47 46 26 43 56 0 0 +0 17 24 0 84 23 30 10 25 18 0 29 -0 17 29 0 27 25 6
2 10 21 61 0 0 +0 15 27 29 0 29 85 0 0 17 62 0 27 29 28 37 64 65 0 58 +0 17 28 0
 27 62 25 39 78 76 0 69 -0 17 64 0 63 67 58 39 62 65 0 0 -0 17 69 0 82 78 43 39
 67 70 0 64 +0 14 255 85 30 0 ?83 60 27 4 86 +0 0 83 60 16 0 14 83 27 0 ?68 85 8
2 4 87 +0 0 68 85 16 0 14 60 33 0 ?85 11 20 4 13 +0 0 85 11 16 0 50 86 48 0 85 8
7 13 0 +-1 0 0 -1 0 0 0 0 1 0 13 16 4 0 0 0 0 0 0 8 11 0 14 11 36 0 ?60 0 84 4 5
 +0 0 60 0 16 0 50 87 47 0 83 88 86 0 +0 1 0 0 1 0 0 0 1 0 50 13 49 0 60 86 5 0
 +0 -1 0 0 -1 0 0 0 -1 0 50 88 46 0 50 89 87 0 +1 0 0 1 0 0 0 0 -1 0 14 50 2 0 ?
0 68 45 4 88 +0 0 0 68 16 0 50 89 37 0 68 0 88 0 +0 0 0 0 0 -1 -1 0 0 0 14 68 9
 0 ?50 83 63 4 89 +0 0 50 83 16 0 19 12 5 0 1 0 8 4 S0 0 1 0 
